# xmcd
#
# Track frame offsets: 
#        150
#        22447
#        44349
#        56810
#        69786
#        85375
#        99472
#        115294
#        130016
#        140357
#        154549
#        173844
#        195176
#        207915
#        218967
#        229297
#        243753
#        267319
#        288960
#
# Disc length: 4155 seconds
#
# Revision: 1
# Processed by: cddbd v1.5.2PL0 Copyright (c) Steve Scherf et al.
# Submitted via: ExactAudioCopy v1.0b2
#
DISCID=10103913
DTITLE=Various Artist - Les voix du jazz
DYEAR=2007
DGENRE=Jazz
TTITLE0=Ella fitzgerald - Summertime
TTITLE1=Louis Armstrong and Duke Ellington - Solitude
TTITLE2=Dinah Washington - Mad about the boy
TTITLE3=Julie London - Cry me a river
TTITLE4=Sarah Vaughan - Stormy weather
TTITLE5=Billie Holiday - Trav'lin light
TTITLE6=Shirley Bassey - As time goes by
TTITLE7=Dinah shore - The man i love
TTITLE8=Chet Baker - My funny valentine
TTITLE9=Matt Monro - Fly me to the moon
TTITLE10=June Christy - Something cool
TTITLE11=Lena Horne - Someting to live for
TTITLE12=Nancy Wilson - Darn that dream
TTITLE13=Ella Fitzgerald - Mysty blue
TTITLE14=Dinah Washington - Call me irresponsible
TTITLE15=Jackie De Shannon - What the world needs now is love
TTITLE16=Dianne Reeves - Exactly like you
TTITLE17=Bobby McFerrin - Dopn't worry, be happy
TTITLE18=Ray Charles and Dee Dee Bridgewater - Precious Thing
EXTD=YEAR: 2007
EXTT0=
EXTT1=
EXTT2=
EXTT3=
EXTT4=
EXTT5=
EXTT6=
EXTT7=
EXTT8=
EXTT9=
EXTT10=
EXTT11=
EXTT12=
EXTT13=
EXTT14=
EXTT15=
EXTT16=
EXTT17=
EXTT18=
PLAYORDER=
